<?xml version="1.0" encoding="utf-8"?>
<!-- Generator: Adobe Illustrator 27.5.0, SVG Export Plug-In . SVG Version: 6.00 Build 0)  -->
<svg version="1.1" xmlns="http://www.w3.org/2000/svg" xmlns:xlink="http://www.w3.org/1999/xlink" x="0px" y="0px"
	 viewBox="0 0 1119.973 1122" style="enable-background:new 0 0 1119.973 1122;" xml:space="preserve">
<g id="BG">
	<rect y="0" style="fill:#FFFFFF;" width="1119.973" height="1122"/>
</g>
<g id="OBJECT">
	<g>
		<path style="fill:#FFFFFF;" d="M714.948,285.131c-2.294-0.049-4.517-0.301-6.751-0.521c-0.286-0.76-0.899-1.415-2.001-1.711
			c-4.706-1.265-4.896-4.162-1.944-7.815c1.667-2.062,0.19-6.434-2.986-5.132c-5.946,2.437-11.693,3.461-17.341,3.423
			c-0.391-0.072-0.8-0.139-1.163-0.219c-12.936-2.814-19.912-6.944-30.04-15.445c-5.186-4.352-11.116-8.58-17.374-11.18
			c-10.605-4.405-21.855-2.769-32.027,1.895c-10.577,4.85-14.287,14.65-17.636,25.294c-0.145-0.102-0.265-0.223-0.447-0.298
			c0.098-0.031,0.196-0.063,0.294-0.094c-0.578-2.833-4.762-2.848-5.755-0.371c-1.885-0.317-4.252,1.221-3.796,3.758
			c3.361,18.73,2.859,37.993,3.424,56.996c0.118,3.943,6.259,3.959,6.141,0c-0.28-9.414-0.384-18.843-0.756-28.246
			c0.878-0.253,1.663-0.846,2.02-1.959c0.358-1.118,0.801-2.088,1.226-3.091c2.157-2.431,4.151-4.904,6.069-7.431
			c0.32-0.336,0.655-0.653,0.977-0.988c1.276-0.427,2.495-1.181,3.546-2.429c0.16-0.19,0.324-0.415,0.484-0.617
			c13.388-9.023,28.899-7.208,44.169-2.248c1.133,1.71,2.783,3.04,4.952,3.474c1.391,0.278,2.622,0.651,3.887,1.003
			c2.871,2.136,5.912,4.027,9.503,5.188c0.321,0.661,0.861,1.237,1.766,1.524c0.485,0.154,0.977,0.243,1.463,0.387
			c0.165,0.115,0.345,0.207,0.51,0.323c1.601,1.136,3.531,1.465,5.427,1.229c2.363,0.494,4.732,0.877,7.099,1.131
			c0.537,0.078,1.052,0.186,1.597,0.257c0.03,0.011,0.062,0.025,0.091,0.036c0.002-0.007,0.002-0.014,0.003-0.021
			c0.277,0.036,0.534,0.096,0.814,0.131c0.528,0.066,0.962-0.013,1.345-0.159c12.344,0.585,24.435-2.389,34.762-10.355
			C718.789,289.085,718.251,285.202,714.948,285.131z"/>
		<g>
			<path style="fill:#FFFFFF;" d="M929.39,749.908c1.247-12.222-4.571-25.168-17.425-29.359c0.351-3.126,0.28-6.291-0.294-9.377
				c6.599-8.296,7.866-20.538,3.676-30.324c17.266-9.655,17.503-37.682,0.744-47.885c1.174-4.123,1.505-8.495,0.945-12.765
				c0.433,0.018,0.831,0.088,1.276,0.088c30.632,0,34.85-40.929,12.685-52.297c-1.668-4.97-4.62-9.457-8.921-12.659
				c18.919-11.961,15.653-46.928-9.92-50.748c-0.014-12.185-6.905-24.354-20.824-27.004c1.982-5.615,1.92-11.512,0.287-17.142
				c-1.866-16.685-13.542-32.043-35.225-32.043c-7.708,0-14.142,1.971-19.347,5.232c-3.2,1.43-6.107,3.204-8.551,5.416
				c-13.338,4.353-21.075,15.773-23.036,28.358c-4.439-1.424-9.238-1.748-14.035-0.949c-6.743,0.433-12.089,2.889-16.037,6.616
				c-5.671,3.614-10.682,8.057-15.202,13.015c-3.78-3.038-7.592-6.043-11.28-9.182c-7.599-12.551-16.794-23.941-27.705-34.115
				c-3.728-3.478-7.94-4.581-11.896-4.117c-8.671-9.871-17.631-20.99-20.174-31.709c-1.886-7.948-8.06-11.159-14.326-10.899
				c-0.081-0.087-0.117-0.186-0.202-0.271c-3.194-3.194-9.933-3.932-13.026,0c-6.252,7.949-12.12,16.147-17.576,24.657
				c-7.803-12.756-17.527-24.414-26.296-36.652c-7.071-11.026-14.142-22.052-21.213-33.078c-2.1-3.274-5.228-4.451-8.257-4.218
				c-0.454-0.857-1.27-1.514-2.538-1.514c-2.117,0-3.064,1.754-2.914,3.39c-3.863-0.79-8.293,0.465-10.199,4.077
				c-4.767,9.033-8.764,18.246-12.249,27.824c-11.038,3.723-20.947,11.292-27.893,21.644c-22.272,33.189-45.48,65.766-70.131,97.236
				c-1.289,0.007-2.486,0.153-3.723,0.241c-0.745-0.951-1.489-1.901-2.234-2.851c-3.196-4.08-8.578-8.839-10.373-13.757
				c-2.817-7.722-12.307-7.667-16.405-3.146c-0.93,0.416-1.848,0.968-2.716,1.785c-14.678,13.827-22.68,32.609-36.931,46.804
				c-14.229,14.172-23.724,32.216-38.103,45.941c-1.304,1.245-2.098,2.582-2.517,3.927c-5.523,4.298-10.392,9.475-9.392,16.417
				c1.383,9.593,11.079,10.644,19.357,10.913c0.629,0.079,1.253,0.081,1.888,0.066c1.007,0.024,2.002,0.045,2.919,0.078
				c5.331,0.193,10.643,0.056,15.945-0.225c-2.437,4.651-4.143,9.701-5.057,14.943c-1.691-0.159-3.422-0.26-5.219-0.26
				c-19.858,0-33.48,9.7-40.873,22.998c-8.967,1.414-16.364,5.017-22.235,10.023c-6.011,1.8-10.41,5.652-13.071,10.553
				c-13.804,6.349-22.25,18.908-25.248,32.898c-0.367,0.204-0.675,0.47-1.034,0.684c-3.444-2.114-7.607-3.47-12.675-3.47
				c-7.79,0-13.623,3.002-17.559,7.505c-2.503,2.573-4.379,5.657-5.512,9.06c-10.574,0.183-18.883,3.808-24.993,9.388
				c-9.533,4.369-13.846,14.693-13.101,24.562c-0.006,0.006-0.011,0.012-0.016,0.018c-6.577,4.928-9.623,13.223-9.266,21.348
				c0.017,0.615,0.09,1.219,0.147,1.831c0.073,0.668,0.126,1.332,0.246,1.991c0.523,3.135,1.528,6.176,3.131,8.89
				c-7.883,5.444-5.481,21.672,7.196,22.759c223.68,19.191,448.435,19.923,672.234,2.19c2.516-0.199,4.586-1.046,6.299-2.247
				c0.888-0.054,1.776-0.073,2.663-0.122c10.173-0.354,20.348-0.555,30.534-0.468c3.112,1.265,6.636,2.036,10.671,2.036
				C948.182,802.457,952.213,760.839,929.39,749.908z"/>
			<g>
				<g>
					<path style="fill:#2B2A2A;" d="M671.256,787.74c-9.691-17.226-23.134-32.925-35.263-48.492
						c-12.602-16.176-25.644-32.01-39.021-47.551c-26.387-30.656-54.164-60.357-83.64-88.074c-1.081-1.017-3.087-1.046-4.054,0.131
						c-4.467,5.431-9.188,10.785-13.712,16.276c-16.775-17.368-33.703-34.578-50.916-51.513c-0.97-0.954-3.291-1.16-4.106,0.133
						c-46.333,73.433-92.338,147.078-138.745,220.462c-0.665,1.051,1.005,2.442,1.686,1.39
						c46.55-71.875,93.493-143.499,140.125-215.322c15.951,16.6,32.121,32.98,48.461,49.199c-2.578,3.281-5.056,6.623-7.313,10.087
						c-0.621,0.953,0.666,2.587,1.66,1.736c9.243-7.912,17.261-17.388,25.521-26.364c27.803,28.395,54.944,57.289,80.599,87.664
						c12.693,15.029,25.024,30.359,37.074,45.908c11.98,15.459,22.656,32.504,35.555,47.158
						C667.506,793.225,673.543,791.804,671.256,787.74z"/>
					<path style="fill:#2B2A2A;" d="M817.892,618.419c-21.35-15.687-76.136-91.18-98.49-105.416
						c-1.682-1.071-4.081-0.166-4.86,1.548c-25.025,55.077-53.739,108.727-77.27,164.451c-0.909,2.153,2.504,3.894,3.661,1.775
						c28.274-51.779,51.956-106.177,78.669-158.797c19.085,15.432,73.334,88.26,93.21,102.601
						C817.435,627.915,822.561,621.849,817.892,618.419z"/>
					<path style="fill:#2B2A2A;" d="M669.19,610.363c-9.143-10.939-19.187-21.332-29.266-31.419
						c-1.496-1.497-3.863-0.868-4.784,0.811c-10.29,18.76-22.086,36.58-33.142,54.878c-0.651,1.076,0.983,2.518,1.739,1.434
						c11.598-16.609,22.577-33.625,34.722-49.846c8.126,9.9,16.538,19.692,25.448,28.859
						C666.966,618.227,672.113,613.861,669.19,610.363z"/>
					<path style="fill:#2B2A2A;" d="M735.503,450.198c-21.182-21.376-44.122-41.369-66.562-61.417
						c-0.837-0.747-2.654-0.973-3.36,0.109c-5.56,8.526-11.604,16.867-16.652,25.728c-20.609-26.639-41.248-53.259-62.326-79.515
						c-1.802-2.245-4.969-2.365-6.445,0.208c-20.574,35.864-46.653,69.397-69.743,103.699
						c-22.562,33.516-45.168,67.021-67.044,100.99c-0.814,1.264,1.146,2.955,2.058,1.696c24.104-33.284,47.505-67.089,70.9-100.875
						c22.374-32.31,43.203-66.845,67.586-97.719c29.386,38.975,59.67,77.296,89.581,115.867c3.268,4.214,10.003,0.235,6.514-4.248
						c-9.747-12.528-19.461-25.086-29.176-37.645c6.154-7.284,11.597-15.232,17.19-22.958c20.68,20.699,41.368,41.809,63.27,61.187
						C734.935,458.527,738.784,453.508,735.503,450.198z"/>
					<path style="fill:#2B2A2A;" d="M680.053,509.463c-45.393-27.866-106.233-14.456-138.106,27.12
						c-0.529,0.69,0.622,1.646,1.17,0.964c14.895-18.551,35.688-32.018,58.887-37.522c26.638-6.32,53.335-1.143,77.128,11.708
						C680.733,512.598,681.447,510.319,680.053,509.463z"/>
					<path style="fill:#2B2A2A;" d="M766.471,501.142c-8.03-17.805-26.446-30.167-46.094-30.236
						c-19.474-0.068-39.466,12.799-45.742,31.566c-0.208,0.621,0.715,1.123,1.041,0.505c8.655-16.459,24.192-28.827,43.397-29.388
						c18.123-0.529,34.873,10.167,43.297,25.877c-0.512,0.562-0.621,1.539,0.185,2.094c0.535,0.368,1.071,0.736,1.606,1.104
						C765.296,503.445,767.188,502.732,766.471,501.142z"/>
					<path style="fill:#2B2A2A;" d="M674.666,492.665c-6.094-3.635-14.191-0.193-17.027,5.884c-0.266,0.571,0.677,1.051,0.989,0.479
						c3.077-5.63,9.778-7.089,15.37-4.718C675.212,494.826,675.694,493.279,674.666,492.665z"/>
					<path style="fill:#2B2A2A;" d="M559.291,555.679c-10.486-11.921-25.934-18.59-41.779-18.675
						c-13.975-0.075-35.458,6.104-35.601,23.318c-0.013,1.551,2.515,2.406,2.725,0.593c1.935-16.762,21.556-21.947,35.932-21.378
						c14.415,0.571,27.776,6.686,37.963,16.821C558.976,556.801,559.727,556.174,559.291,555.679z"/>
					<path style="fill:#2B2A2A;" d="M479.063,556.042c-5.802-3.121-12.909-2.902-18.563,0.484c-1.198,0.718,0.261,2.525,1.397,1.863
						c5.285-3.077,11.013-3.474,16.688-1.17C479.446,557.568,479.832,556.456,479.063,556.042z"/>
					<path style="fill:#2B2A2A;" d="M615.587,661.066c-9.894-8.861-24.659-10.609-36.305-4.214
						c-0.771,0.423,0.151,1.503,0.868,1.157c11.531-5.569,24.585-3.888,34.287,4.452
						C615.429,663.315,616.554,661.932,615.587,661.066z"/>
					<path style="fill:#2B2A2A;" d="M828.717,645.142c-25.88-10.716-58.949-1.469-73.818,22.785c-0.407,0.665,0.593,1.555,1.08,0.89
						c16.25-22.187,46-32.017,71.845-21.478C829.415,647.989,830.233,645.77,828.717,645.142z"/>
					<path style="fill:#2B2A2A;" d="M857.585,646.976c-6.963-11.033-22.968-14.628-33.732-7.042
						c-0.459,0.324,0.104,0.996,0.555,0.74c10.966-6.207,24.701-3.318,31.808,7.194
						C856.851,648.806,858.214,647.973,857.585,646.976z"/>
					<path style="fill:#2B2A2A;" d="M558.842,653.361c-10.806-6.788-21.611-13.576-32.416-20.364
						c-0.808-0.508-2.01,0.052-2.088,1.004c-0.894,10.954-1.783,21.909-2.664,32.865c-12.211-6.258-24.417-12.526-36.626-18.79
						c-0.617-0.317-1.587-0.146-1.836,0.585c-3.122,9.159-6.257,18.317-9.298,27.504c-6.274-12.806-11.922-25.953-18.611-38.545
						c0.373-0.379,0.756-0.75,1.128-1.13c1.065-1.085-0.958-2.723-2.036-1.678c-7.756,7.519-15.366,15.193-23.019,22.818
						c-0.533-11.658-1.071-23.316-1.631-34.973c-0.034-0.712-1.052-1.43-1.733-1.126c-14.991,6.676-29.053,15.98-38.428,29.754
						c-0.378,0.556,0.451,1.263,0.911,0.751c10.448-11.642,22.195-21.727,36.869-27.491c0.523,12.051,1.063,24.1,1.612,36.15
						c0.051,1.124,1.59,1.532,2.31,0.817c7.738-7.688,15.538-15.323,23.207-23.081c5.655,13.98,12.592,27.449,18.556,41.296
						c0.363,0.843,1.889,1.297,2.279,0.216c3.445-9.534,6.764-19.116,10.101-28.688c12.349,6.373,24.701,12.74,37.045,19.121
						c0.795,0.411,1.914,0.01,1.996-0.961c0.93-10.845,1.849-21.69,2.766-32.536c10.159,6.419,20.318,12.838,30.478,19.257
						C559.558,657.299,560.558,654.438,558.842,653.361z"/>
					<path style="fill:#2B2A2A;" d="M775.224,585.298c-1.101-0.99-2.896,0.449-1.816,1.621c4.931,5.354,6.531,12.218,3.961,18.854
						c-11.647-11.27-23.302-22.531-34.932-33.819c-0.924-0.897-2.442-0.161-2.311,1.092c0.743,7.088,1.468,14.179,2.238,21.265
						c-5.148-6.61-10.296-13.221-15.444-19.832c-0.743-0.955-2.374-0.907-2.605,0.429c-0.888,5.138-1.779,10.276-2.669,15.413
						c-1.793-5.405-3.585-10.81-5.377-16.214c-0.319-0.963-1.773-1.346-2.445-0.551c-8.529,10.089-17.279,19.992-25.864,30.035
						c1.321-11.569,3.459-23.064,4.284-34.678c0.036-0.506-0.739-0.734-0.857-0.186c-2.742,12.692-3.84,25.706-6.278,38.458
						c-0.216,1.131,1.442,1.907,2.188,1.071c9.135-10.237,18.046-20.674,27.166-30.924c2.103,6.491,4.208,12.982,6.309,19.474
						c0.445,1.373,2.617,1.383,2.868-0.093c1.023-6.023,2.044-12.046,3.068-18.069c5.493,7.06,10.986,14.12,16.479,21.18
						c0.854,1.098,2.761,0.778,2.606-0.797c-0.735-7.456-1.558-14.904-2.365-22.352c11.242,10.872,22.465,21.763,33.694,32.648
						c0.698,0.676,1.835,0.438,2.254-0.382C783.448,600.975,781.924,591.322,775.224,585.298z"/>
					<path style="fill:#2B2A2A;" d="M665.012,628.182c-3.37-5.824-7.389-11.305-11.144-16.887c-0.549-0.816-2.277-1.087-2.627,0.085
						c-1.232,4.127-2.452,8.257-3.67,12.388c-2.236-4.117-4.47-8.236-6.714-12.349c-0.359-0.657-1.471-1.485-2.234-0.804
						c-7.362,6.573-14.827,13.059-22.089,19.748c3.098-8.757,6.568-17.388,9.321-26.263c0.136-0.437-0.531-0.818-0.742-0.359
						c-4.552,9.932-8.085,20.298-12.447,30.311c-0.414,0.95,0.971,2.234,1.839,1.516c8.398-6.948,16.509-14.268,24.704-21.457
						c2.482,4.644,4.97,9.284,7.458,13.924c0.483,0.901,2.365,1.703,2.798,0.265c1.277-4.245,2.544-8.494,3.807-12.743
						c3.054,4.627,6.06,9.325,9.452,13.688C663.58,630.344,665.859,629.645,665.012,628.182z"/>
					<path style="fill:#2B2A2A;" d="M721.878,443.073c-0.205-1.72-2.907-1.802-2.827,0.091c0.128,3.016,0.387,6.026,0.652,9.035
						c-8.761-8.369-17.522-16.738-26.283-25.107c-0.659-0.63-2.242-0.422-2.225,0.697c0.114,7.546,0.233,15.093,0.352,22.639
						c-8.941-9.104-17.88-18.208-26.842-27.291c-0.594-0.602-1.829-0.31-1.894,0.593c-0.595,8.278-1.63,16.55-1.992,24.844
						c-2.831-4.893-5.662-9.787-8.493-14.68c-0.403-0.697-1.816-1.334-2.186-0.207c-2.273,6.914-4.556,13.826-6.839,20.737
						c-11.38-16.154-22.762-32.306-34.135-48.465c-0.484-0.688-1.629-0.761-2.004,0.065c-5.193,11.443-10.39,22.885-15.576,34.331
						c-5.841-14.316-11.656-28.643-17.593-42.92c-0.272-0.655-1.395-1.138-1.892-0.427c-6.989,9.989-14.378,19.706-21.124,29.864
						c-0.28-4.489-0.855-8.969-1.343-13.437c-0.097-0.888-1.363-1.403-1.975-0.698c-4.188,4.824-8.418,9.621-12.537,14.507
						c1.509-7.555,3.228-15.131,4.132-22.758c0.05-0.42-0.693-0.768-0.832-0.289c-2.484,8.555-3.903,17.491-5.798,26.193
						c-0.187,0.859,1.075,1.391,1.629,0.798c4.59-4.904,9.003-9.981,13.451-15.018c0.351,3.952,0.691,7.914,1.288,11.831
						c0.189,1.241,2.129,1.319,2.058-0.066c-0.006-0.129-0.02-0.257-0.027-0.385c0.21,0.29,0.604,0.449,0.871,0.116
						c7.226-9.024,13.9-18.477,20.865-27.701c5.849,14.591,11.813,29.136,17.745,43.693c0.359,0.881,1.747,1.172,2.185,0.207
						c5.293-11.666,10.572-23.34,15.855-35.01c11.433,16.221,22.857,32.448,34.284,48.673c0.44,0.624,1.709,0.824,2.002-0.065
						c2.251-6.809,4.505-13.617,6.764-20.423l8.114,14.116c0.729,1.267,3.034,0.745,2.214-0.673
						c-0.083-0.143-0.165-0.285-0.247-0.428c1.424-7.793,2.172-15.71,3.224-23.565c9.068,9.365,18.154,18.713,27.24,28.06
						c0.62,0.638,2.138,0.377,2.127-0.666c-0.078-7.539-0.159-15.078-0.243-22.618c8.863,8.53,17.727,17.061,26.59,25.592
						c0.958,0.922,2.442,0.154,2.343-1.107C722.626,451.526,722.379,447.282,721.878,443.073z"/>
					<path style="fill:#2B2A2A;" d="M584.574,276.107c-0.018-0.425-0.494-0.639-0.881-0.594c-0.03-0.895-0.062-1.791-0.091-2.686
						c-0.049-1.494-2.534-1.584-2.47,0.08c0.868,22.807,1.688,45.615,2.54,68.423c0.044,1.17,2.281,1.531,2.257,0.21
						C585.538,319.74,585.491,297.892,584.574,276.107z"/>
					<path style="fill:#2B2A2A;" d="M716.229,282.334c-2.7-0.371-5.396-0.758-8.091-1.148c-1.697-0.314-3.395-0.597-5.068-0.809
						c3.399-3.886,6.009-8.822,7.506-13.732c0.042-0.101,0.085-0.202,0.127-0.303c0.525-0.413,1.059-0.815,1.558-1.258
						c0.353-0.718,0.704-1.438,1.049-2.16c-0.846,0.421-1.703,0.821-2.564,1.213c-0.546,0.243-1.095,0.48-1.649,0.708
						c-0.426,0.179-0.853,0.358-1.285,0.527c-3.598,1.392-7.346,2.481-11.248,3.23c-8.886,2.97-18.516,2.876-27.987-1.59
						c-2.281-1.075-4.403-2.389-6.465-3.794c-5.699-4.398-10.953-9.56-17.028-13.423c-2.156-1.612-4.372-3.137-6.739-4.436
						c-24.388-13.377-49.456,6.483-56.279,30.178c-0.205,0.711,0.865,1.341,1.21,0.587c0.794-1.733,1.632-3.463,2.522-5.172
						c-0.073,0.354,0.486,0.65,0.621,0.269c0.836-2.355,1.895-4.6,3.116-6.735c2.253-3.523,4.787-6.834,7.697-9.725
						c6.113-5.649,13.946-9.337,22.647-10.025c4.615-0.365,8.767,0.185,12.622,1.346c7.579,2.969,14.262,8.591,21.002,14.115
						c5.072,4.156,10.357,7.741,16.115,10.204c5.933,2.983,12.361,4.568,19.425,4.112c6.162-0.398,12.365-2.272,17.743-5.464
						c-1.533,2.674-3.193,5.363-4.547,8.16c-0.772,0.93-1.571,1.854-2.412,2.777c-0.323-0.024-0.429,0.244-0.391,0.509
						c-0.702,1.102,1.118,2.487,2.125,1.495c0.094-0.092,0.179-0.197,0.272-0.291c0.206,0.074,0.425,0.138,0.632,0.211
						c2.214,0.85,4.516,1.561,6.878,2.124c3.018,0.803,6.063,1.459,8.972,1.872c0.105,0.015,0.184-0.002,0.275-0.006
						c-1.977,2.012-4.159,3.798-6.444,5.437c-2.175,1.46-4.409,2.828-6.722,4.089c-7.193,3.637-15.22,5.64-23.294,5.654
						c-16.219,0.028-27.692-9.608-41.681-16.117c-20.212-9.404-47.018-1.687-55.542,20.052c-0.21,0.534,0.609,0.953,0.898,0.435
						c6.75-12.127,18.615-20.883,32.614-22.327c15.643-1.614,27.157,7.998,40.279,14.686c17.268,8.8,37.576,7.273,53.127-3.06
						c4.424-2.447,8.519-5.422,12.115-8.846c0,0,0.014,0,0.022,0.001c0.322-0.361,0.618-0.744,0.929-1.115
						C721.852,284.283,718.93,283.467,716.229,282.334z"/>
					<path style="fill:#2B2A2A;" d="M578.081,276.852c-0.046-0.546-1.073-0.738-1.075-0.1c-0.033,20.595,1.01,41.308,1.956,61.879
						c0.063,1.383,2.334,1.456,2.278-0.074C580.484,318.018,579.805,297.335,578.081,276.852z"/>
					<path style="fill:#2B2A2A;" d="M583.714,271.877c-0.539,0.263-1.077,0.529-1.621,0.782c-0.324,0.151,0.056,0.672,0.373,0.498
						c0.522-0.288,1.05-0.563,1.577-0.84C584.336,272.163,583.988,271.743,583.714,271.877z"/>
					<path style="fill:#2B2A2A;" d="M583.786,272.383c-1.986-2.32-5.711-2.927-8.151-0.909c-2.305,1.906-2.577,5.533-0.491,7.657
						c0.505,0.514,1.254-0.056,1.034-0.681c-0.611-1.732-0.508-3.953,1.063-5.16c1.46-1.122,3.304-0.829,4.636,0.258
						c-0.735,0.49-1.47,0.98-2.205,1.47c-0.274,0.183,0.07,0.613,0.329,0.44c0.777-0.518,1.555-1.036,2.332-1.554
						C583.283,274.583,584.644,273.385,583.786,272.383z"/>
					<path style="fill:#2B2A2A;" d="M357.673,698c-19.765-1.262-40.651,8.764-50.887,25.966c-0.207,0.349,0.202,0.739,0.571,0.755
						c-16.359-1.153-32.608,6.341-42.565,20.295c-0.228,0.319,0.296,0.754,0.528,0.436c13.585-18.566,36.917-24.363,57.97-15.585
						c0.694,0.289,1.042-0.661,0.39-0.96c-5.28-2.426-10.782-3.791-16.273-4.184c0.118-0.007,0.232-0.049,0.313-0.157
						c12.178-16.283,29.657-25.69,50.21-24.966C359.035,699.638,358.625,698.06,357.673,698z"/>
					<path style="fill:#2B2A2A;" d="M422.542,576.494c-22.101,3.117-40.992,20.249-48.813,40.692
						c-0.204,0.534,0.683,1.007,0.911,0.442c8.54-21.176,26.583-34.428,48.35-39.607
						C423.893,577.807,423.358,576.38,422.542,576.494z"/>
					<path style="fill:#2B2A2A;" d="M458.955,552.916c-20.549-4.604-43.935,6.819-52.764,25.935
						c-0.262,0.568,0.659,1.029,0.976,0.473c10.579-18.567,30.537-28.093,51.588-24.464
						C460.128,555.097,460.181,553.19,458.955,552.916z"/>
					<path style="fill:#2B2A2A;" d="M306.852,784.968c-32.536-3.697-66.649-2.167-99.359-1.736
						c-2.839,0.037-1.683,3.823,0.646,4.011c32.466,2.629,66.372,6.638,98.938,5.116
						C311.594,792.149,310.952,785.434,306.852,784.968z"/>
					<path style="fill:#2B2A2A;" d="M844.889,731.886c-37.182-1.931-74.706-0.669-111.927-0.556
						c-37.208,0.113-74.472-0.107-111.664,1.071c-1.962,0.062-1.231,2.766,0.455,2.818c37.308,1.17,74.686,0.958,112.01,1.071
						c37.157,0.113,74.632,1.404,111.747-0.556C848.214,735.592,847.163,732.004,844.889,731.886z"/>
				</g>
				<path style="fill:#2B2A2A;" d="M768.35,480.605c-14.787-17.217-31.687-32.779-48.041-48.486
					c-15.573-14.957-31.719-30.808-49.038-43.987c0.183-4.187-6.582-7.735-9.658-4.051c-3.965,4.75-7.106,10.433-10.25,15.759
					c-1.272,2.155-2.719,4.413-3.952,6.756c-8.832-12.775-19.456-24.597-29.195-36.621c-9.672-11.941-19.251-25.44-31.635-34.668
					c-1.336-0.995-3.246-0.537-3.729,0.755c-2.359-1.165-5.1-1.079-6.83,1.425c-24.243,35.102-50.019,69.203-74.763,103.961
					c-12.853,18.055-26.477,36.114-39.324,54.623c-0.099-0.349-0.266-0.707-0.522-1.064c-3.352-4.671-7.772-8.832-11.841-12.893
					c-3.943-3.936-7.759-8.497-12.744-11.118c-0.014-0.007-0.027-0.001-0.041-0.007c-1.133-1.193-3.062-1.704-4.367-0.263
					c-25.048,27.662-47.787,57.709-70.809,87.055c-1.075,1.37,1.176,3.222,2.334,1.923c24.58-27.571,49.876-54.994,72.512-84.208
					c2.372,3.863,5.756,7.194,8.701,10.559c3.782,4.322,7.675,8.996,12.111,12.652c0.768,0.633,1.602,0.801,2.364,0.701
					c-9.816,14.301-19.126,28.877-27.133,43.984c-1.48,2.792,3.003,5.37,5.035,3.233c28.369-29.849,51.613-65.914,75.767-99.191
					c24.467-33.709,47.99-68.176,72.933-101.527c0.189-0.253,0.315-0.514,0.454-0.774c6.644,11.852,16.145,22.636,24.359,33.151
					c10.323,13.215,20.128,27.134,31.778,39.205c3.253,3.37,7.379,1.098,8.213-2.35c3.62-2.849,6.586-7.156,9.286-10.602
					c2.84-3.624,5.746-7.249,8.275-11.107c12.215,15.229,26.555,29.463,40.174,43.187c16.997,17.128,33.828,34.962,52.424,50.374
					C765.639,490.673,772.494,485.43,768.35,480.605z"/>
				<path style="fill:#2B2A2A;" d="M832.282,632.173c-18.698-21.758-37.659-43.291-56.547-64.884
					c-17.43-19.925-34.45-43.054-55.448-59.33c-0.274-0.213-0.584-0.364-0.909-0.469c-3.155-2.293-7.966-2.633-9.865,1.62
					c-7.903,17.694-16.573,35.014-24.943,52.488c-6.32,13.195-13.836,26.874-18.159,41.068c-2.557-3.581-5.48-6.951-8.2-10.352
					c-3.942-4.93-7.893-9.891-12.379-14.34c1.013-3.942-5.195-8.305-8.421-4.578c-20.738,23.95-39.758,50.917-53.016,79.808
					c-0.977,2.129,2.656,4.697,4.028,2.586c16.235-24.985,32.824-48.86,52.305-71.341c2.679,4.662,5.762,9.1,8.826,13.51
					c3.692,5.313,7.136,11.016,11.754,15.562c3.299,3.248,9.257,0.584,9.026-3.556c10.299-12.679,17.272-28.942,24.646-43.32
					c8.311-16.206,16.377-32.529,25.035-48.552c12.662,20.075,30.205,38.022,45.348,55.959
					c18.472,21.881,36.875,43.824,55.539,65.541C826.929,646.604,838.755,639.705,832.282,632.173z"/>
				<path style="fill:#2B2A2A;" d="M676.057,786.455c-20.911-34.76-49.998-66.469-76.157-97.368
					c-25.817-30.496-52.783-59.961-80.636-88.605c-2.324-2.39-6.751-2.125-8.874,0.286c-5.063,5.749-10.291,11.304-15.445,16.925
					c-6.306-8.618-14.575-16.309-21.978-23.975c-6.771-7.012-13.599-14.065-21.12-20.281c-1.439-5.01-8.232-8.727-11.736-3.712
					c-24.785,35.473-49.386,71.052-73.469,107.006c-23.073,34.445-48.038,68.705-66.287,106.048
					c-1.636,3.347,3.615,6.564,6.042,3.88c28.171-31.16,50.826-67.606,74.432-102.223c23.169-33.975,45.806-68.286,68.31-102.702
					c4.839,6.716,10.223,13.063,15.584,19.344c7.221,8.461,14.304,17.7,22.711,24.989c-2.732,3.127-5.414,6.304-7.993,9.588
					c-1.129,1.438,0.939,3.514,2.429,2.54c11.68-7.632,22.389-16.386,33.482-24.762c25.765,27.755,50.864,56.126,75.135,85.199
					c25.729,30.818,48.278,64.851,74.923,94.765C671.194,799.892,680.878,794.47,676.057,786.455z"/>
				<path style="fill:#2B2A2A;" d="M655.236,535.119c-22.908-18.644-55.326-9.973-68.222,13.726
					c-10.925-12.084-30.482-14.084-44.686-7.198c-1.53,0.742,0.132,3.343,1.573,2.709c15.126-6.652,29.459-3.677,42.56,5.538
					c-1.947,3.815-3.413,7.989-4.248,12.499c-0.095,0.513,0.76,0.748,0.879,0.191c0.948-4.459,2.487-8.533,4.473-12.217
					c0.23-0.073,0.364-0.266,0.282-0.513c12.714-22.846,43.458-29.792,65.705-12.693
					C655.058,538.317,656.722,536.329,655.236,535.119z"/>
				<path style="fill:#2B2A2A;" d="M542.456,533.63c-5.923-4.244-16.792-1.698-19.856,5.008c-0.16,0.351,0.358,0.813,0.675,0.556
					c2.559-2.072,4.999-3.966,8.289-4.714c3.633-0.826,6.61,0.181,10.045,1.204C542.854,536.055,543.405,534.31,542.456,533.63z"/>
				<path style="fill:#2B2A2A;" d="M636.477,560.003c-9.554-7.036-23.558-3.03-27.041,8.217
					c-11.75,1.682-21.426,9.239-26.278,19.344c-0.059-0.31-0.197-0.625-0.496-0.908c-16.408-15.547-41.951-13.051-55.905,4.316
					c-0.545,0.678,0.599,1.622,1.167,0.962c14.112-16.417,36.962-17.248,52.961-3.122c0.558,0.493,1.137,0.513,1.579,0.281
					c-3.542,8.401-3.825,18.36,0.648,28.097c0.235,0.511,1.068,0.332,0.842-0.256c-9.719-25.187,11.64-50.708,38.068-45.185
					c2.117,0.442,2.219-2.601,0.312-3.019c-3.847-0.844-7.584-1.025-11.157-0.697c4.914-8.93,14.821-11.849,24.065-5.957
					C636.55,562.911,637.681,560.89,636.477,560.003z"/>
				<path style="fill:#2B2A2A;" d="M681.192,549.658c-17.502-11.266-40.761-1.444-45.717,18.432
					c-0.166,0.667,0.867,1.299,1.148,0.556c7.042-18.615,25.691-24.956,43.259-16.786
					C681.322,552.531,682.578,550.551,681.192,549.658z"/>
				<path style="fill:#2B2A2A;" d="M681.985,563.134c-6.038-2.541-14.205,2.266-15.933,8.286c-0.208,0.723,0.912,1.718,1.416,0.909
					c1.563-2.511,3.465-4.622,6.227-5.833c2.741-1.202,5.157-0.835,8.016-0.758C683.238,565.778,683.158,563.627,681.985,563.134z"
					/>
				<path style="fill:#2B2A2A;" d="M534.833,596.592c-9.479-13.705-28.873-19.058-44.181-12.684
					c-0.548,0.228-0.839,0.609-0.949,1.033c-7.47-7.348-20.224-7.493-28.737,0.909c-1.207,1.192,0.695,3.185,2.054,2.715
					l2.182-0.753c0.876-0.302,1.054-1.009,0.854-1.668c9.897-7.199,23.392-2.755,28.273,8.854c0.161,0.384,0.903,0.373,0.788-0.129
					c-0.676-2.95-1.871-5.485-3.423-7.612c0.127-0.013,0.249-0.001,0.38-0.045c15.44-5.143,30.435-1.313,41.92,10.128
					C534.504,597.848,535.232,597.17,534.833,596.592z"/>
				<path style="fill:#2B2A2A;" d="M593.691,623.73c-12.854-7.783-33.693-0.876-35.725,15.212c-0.061,0.482,0.611,0.708,0.853,0.296
					c7.755-13.241,18.636-19.399,33.809-12.891C594.563,627.177,595.314,624.713,593.691,623.73z"/>
				<path style="fill:#2B2A2A;" d="M384.893,619.251c-21.46-6.581-47.093,1.867-57.408,22.552
					c-7.554,0.631-15.09,4.509-19.328,10.493c-0.252,0.356,0.256,0.958,0.62,0.649c8.178-6.964,16.395-9.449,27.042-8.43
					c1.404,0.134,1.414-1.598,0.203-1.956c-2.055-0.606-4.221-0.827-6.404-0.828c13.542-17.303,32.742-25.851,54.968-19.513
					C386.642,622.805,386.694,619.804,384.893,619.251z"/>
				<path style="fill:#2B2A2A;" d="M326.757,657.839c-10.761-2.982-21.473-2.034-30.773,1.872c5.021-5.463,11.089-7.89,18.534-6.126
					c1.225,0.29,1.599-1.542,0.478-1.931c-7.352-2.551-17.017,0.675-20.273,8.042c-0.088,0.2,0.012,0.389,0.167,0.511
					c-14.008,6.319-24.58,19.478-26.669,36.437c-0.107,0.872,1.352,1.286,1.489,0.324c3.877-27.336,30.19-44.615,56.822-36.949
					C328.024,660.447,328.111,658.214,326.757,657.839z"/>
				<path style="fill:#2B2A2A;" d="M383.263,652.959c-14.446-5.414-31.779-1.01-40.92,11.633
					c-9.478-0.705-19.394,3.745-25.249,11.095c-13.258-1.016-26.119,8.164-31.033,20.27c-0.212,0.521,0.649,0.979,0.894,0.433
					c6.191-13.755,19.73-19.519,34.143-18.304c1.167,0.098,0.864-1.607-0.056-1.823c-0.81-0.19-1.621-0.325-2.431-0.435
					c8.644-8.026,18.78-9.93,30.36-7.57c1.327,0.27,1.707-1.611,0.514-2.078c-1.804-0.707-3.679-1.155-5.581-1.413
					c9.942-10.652,24.468-14.962,38.536-9.782C383.918,655.528,384.681,653.49,383.263,652.959z"/>
				<path style="fill:#2B2A2A;" d="M362.372,674.132c-17.468-5.575-35.271,5.133-39.855,22.522
					c-0.134,0.508,0.685,0.972,0.861,0.417c5.483-17.264,21.464-25.278,38.817-21.224
					C363.419,676.134,363.392,674.458,362.372,674.132z"/>
				<path style="fill:#2B2A2A;" d="M322.697,698.995c-6.09-6.638-17.388-4.517-22.651,1.984c-0.294,0.363,0.328,0.877,0.627,0.517
					c5.573-6.712,14.241-6.036,20.841-1.444C322.253,700.567,323.442,699.806,322.697,698.995z"/>
				<path style="fill:#2B2A2A;" d="M299.305,708.651c-9.719-3.594-20.067,0.986-23.092,11.084c-0.134,0.447,0.579,0.851,0.759,0.368
					c3.357-8.987,12.637-13.58,21.757-10.035C299.763,710.47,300.293,709.017,299.305,708.651z"/>
				<path style="fill:#2B2A2A;" d="M294.089,695.276c-11.276-3.883-23.104-1.563-31.866,6.599c-0.365,0.34,0.301,1.017,0.672,0.703
					c8.539-7.237,20.204-9.497,30.68-5.223C295.175,698.008,295.638,695.81,294.089,695.276z"/>
				<path style="fill:#2B2A2A;" d="M417.676,604.368c-8.081-2.267-17.455,2.343-20.393,10.214c-0.051,0.136,0.002,0.273,0.085,0.396
					c-11.954,4.314-21.929,13.302-27.746,24.754c-0.346,0.682,0.804,1.26,1.198,0.581c8.077-13.913,20.926-22.403,36.516-25.685
					c1.187-0.25,0.481-2.148-0.585-1.998c-2.856,0.402-5.635,1.077-8.324,1.976c4.233-6.643,11.208-9.874,19.059-8.402
					C418.797,606.45,418.798,604.683,417.676,604.368z"/>
				<path style="fill:#2B2A2A;" d="M511.509,564.67c-12.238-8.999-28.448-6.412-37.418,5.759c-0.327,0.444,0.397,1.049,0.744,0.613
					c9.032-11.35,23.697-13.284,35.637-5.114C511.423,566.579,512.469,565.376,511.509,564.67z"/>
				<path style="fill:#2B2A2A;" d="M538.117,566.235c-5.762-5.752-16.765-4.714-21.544,1.728c-0.386,0.52,0.393,1.115,0.846,0.697
					c5.801-5.345,13.288-5.622,19.65-1.154C538.047,568.193,538.955,567.072,538.117,566.235z"/>
				<path style="fill:#2B2A2A;" d="M684.311,528.021c-11.193-6.516-26.36-5.035-35.638,4.181c-0.413,0.41,0.331,1.147,0.775,0.811
					c10.361-7.842,22.494-9.441,34.237-3.45C684.781,530.123,685.28,528.586,684.311,528.021z"/>
				<path style="fill:#2B2A2A;" d="M694.62,523.495c-4.018,0.428-8.11,1.472-12.034,2.414c-0.692,0.166-0.283,1.261,0.343,1.171
					c4.004-0.576,8.207-1.098,12.1-2.19C695.851,524.659,695.366,523.415,694.62,523.495z"/>
				<path style="fill:#2B2A2A;" d="M826.503,485.083c-29.553-14.326-65.391,4.283-70.459,36.696c-0.1,0.637,0.918,0.908,1.076,0.234
					c7.36-31.276,38.889-47.332,68.573-34.936C827.136,487.678,827.841,485.731,826.503,485.083z"/>
				<path style="fill:#2B2A2A;" d="M802.722,465.082c-19.198-5.073-40.367,9.262-43.648,28.589c-0.083,0.49,0.807,0.874,0.957,0.332
					c5.255-18.936,23.247-30.008,42.492-27C803.895,467.218,803.912,465.397,802.722,465.082z"/>
				<path style="fill:#2B2A2A;" d="M866.91,427.746c-26.349-4.656-54.812,13.732-61.771,39.423c-0.147,0.543,0.705,1.046,0.928,0.45
					c9.507-25.326,33.803-40.209,60.61-37.626C868.252,430.144,868.37,428.003,866.91,427.746z"/>
				<path style="fill:#2B2A2A;" d="M851.422,560.785c-13.105-14.676-36.337-9.603-42.15,9.176c-0.186,0.6,0.792,1.134,1.013,0.491
					c6.118-17.824,27.097-22.19,40.274-8.896C851.06,562.062,851.92,561.343,851.422,560.785z"/>
				<path style="fill:#2B2A2A;" d="M863.886,507.105c-10.273-5.171-22.756-1.398-28.802,8.306
					c-28.002-8.261-60.21,5.771-70.607,35.949c-0.168,0.487,0.623,0.918,0.827,0.401c14.634-37.219,60.64-48.78,90.854-22.333
					c1.016,0.889,2.172-0.538,1.185-1.438c-6.399-5.833-13.66-9.866-21.253-12.261c5.985-8.759,17.647-11.759,27.253-7.284
					C864.299,508.89,864.772,507.551,863.886,507.105z"/>
				<path style="fill:#2B2A2A;" d="M892.509,598.895c-16.777-13.144-40.484-7.349-49.239,12.046
					c-0.254,0.563,0.692,1.06,0.979,0.475c8.917-18.259,30.953-23.478,47.223-11.262
					C892.405,600.854,893.44,599.625,892.509,598.895z"/>
				<path style="fill:#2B2A2A;" d="M913.491,557.109c-7.221-1.864-14.733,0.731-19.199,6.717c-0.356,0.477,0.427,1.13,0.802,0.661
					c4.407-5.504,11.459-7.756,18.232-5.783C914.411,559.02,914.496,557.368,913.491,557.109z"/>
				<path style="fill:#2B2A2A;" d="M422.9,671.941c-15.941,35.96-31.625,72.031-47.506,108.016c-0.24,0.544,0.692,1.037,0.945,0.458
					c15.756-36.042,31.709-71.996,47.406-108.065C423.956,671.863,423.129,671.426,422.9,671.941z"/>
				<path style="fill:#2B2A2A;" d="M391.315,699.651c-15.37,28.499-31.484,56.713-46.038,85.638
					c-0.506,1.006,1.203,1.878,1.772,0.859c15.804-28.248,30.148-57.388,45.144-86.072
					C392.448,699.586,391.591,699.138,391.315,699.651z"/>
				<path style="fill:#2B2A2A;" d="M453.336,678.07c-2.798,35.091-6.512,70.247-8.197,105.409c-0.031,0.644,1.033,0.972,1.112,0.242
					c3.774-35,5.525-70.311,8.179-105.413C454.478,677.666,453.392,677.359,453.336,678.07z"/>
				<path style="fill:#2B2A2A;" d="M518.677,783.353c-5.372-26.738-11.451-53.336-17.209-79.992
					c-0.103-0.478-0.928-0.519-0.818,0.026c5.363,26.677,10.41,53.429,16.158,80.027
					C517.044,784.504,518.928,784.598,518.677,783.353z"/>
				<path style="fill:#2B2A2A;" d="M603.782,785.354c-27.112-28.846-50.985-60.575-72.103-94.041
					c-0.268-0.424-0.876-0.05-0.605,0.395c20.628,33.859,44.824,65.153,71.596,94.371
					C603.28,786.744,604.443,786.056,603.782,785.354z"/>
				<path style="fill:#2B2A2A;" d="M647.276,802.214c-16.992-19.975-34.401-39.406-50.224-60.363
					c-15.771-20.889-30.528-42.517-44.499-64.647c-0.373-0.591-1.225-0.07-0.845,0.551c27.042,44.131,57.896,88.108,93.54,125.782
					C646.351,804.702,648.446,803.589,647.276,802.214z"/>
				<path style="fill:#2B2A2A;" d="M518.851,456.232c-21.121,31.451-42.857,62.596-63.163,94.581
					c-0.509,0.802,0.744,1.873,1.298,1.07c21.542-31.203,41.749-63.399,62.478-95.146
					C519.711,456.358,519.105,455.853,518.851,456.232z"/>
				<path style="fill:#2B2A2A;" d="M556.543,444.75c-14.602,29.99-29.485,60.076-42.867,90.629c-0.39,0.89,1.08,1.659,1.536,0.745
					c14.876-29.859,28.429-60.572,42.09-91.006C557.498,444.681,556.764,444.296,556.543,444.75z"/>
				<path style="fill:#2B2A2A;" d="M571.281,454.334c-4.893,23.004-9.576,46.052-14.429,69.065
					c-0.209,0.992,1.509,1.478,1.722,0.375c4.467-23.095,9.104-46.158,13.532-69.26
					C572.198,454.033,571.393,453.811,571.281,454.334z"/>
				<path style="fill:#2B2A2A;" d="M605.862,442.951c-0.052-0.45-0.804-0.479-0.747,0.024c1.976,17.677,3.52,35.405,5.603,53.069
					c0.117,0.985,1.759,1.049,1.638-0.053C610.407,478.288,607.919,460.643,605.862,442.951z"/>
				<path style="fill:#2B2A2A;" d="M637.253,494.95c-4.801-17.165-9.68-34.309-14.443-51.485c-0.118-0.425-0.877-0.466-0.747,0.024
					c4.528,17.159,8.938,34.349,13.427,51.518C635.759,496.031,637.57,496.083,637.253,494.95z"/>
				<path style="fill:#2B2A2A;" d="M642.973,458.444c-0.129-0.461-0.955-0.516-0.818,0.026c3.342,13.264,6.347,26.705,10.26,39.813
					c0.232,0.779,1.687,0.665,1.474-0.24C650.765,484.74,646.673,471.598,642.973,458.444z"/>
				<path style="fill:#2B2A2A;" d="M669.645,492.752c-3.984-10.926-8.173-21.781-12.296-32.655
					c-0.222-0.584-1.149-0.365-0.924,0.281c3.826,10.968,7.588,21.963,11.554,32.881
					C668.362,494.316,670.068,493.914,669.645,492.752z"/>
				<path style="fill:#2B2A2A;" d="M684.513,485.098c-0.061-0.437-0.5-0.737-0.933-0.821c-3.735-7.094-7.587-14.127-11.368-21.197
					c-0.26-0.487-1.119-0.314-0.841,0.256c3.815,7.826,7.529,15.704,11.424,23.49c0.449,0.898,2.096,0.954,1.918-0.313
					C684.646,486.042,684.579,485.57,684.513,485.098z"/>
				<path style="fill:#2B2A2A;" d="M691.081,476.512c-5.032-7.614-10.416-15.052-15.95-22.307c-0.33-0.432-1.213-0.154-0.887,0.412
					c4.573,7.946,9.369,15.819,14.471,23.438C689.8,479.675,692.212,478.222,691.081,476.512z"/>
				<path style="fill:#2B2A2A;" d="M711.315,467.66c-4.354-2.146-7.747-4.678-9.592-9.353c-0.414-1.05-2.066-0.661-1.666,0.507
					c1.644,4.806,5.684,9.547,10.772,10.81C712.124,469.945,712.352,468.171,711.315,467.66z"/>
				<path style="fill:#2B2A2A;" d="M727.097,468.961c-2.048-3.14-4.206-6.21-6.324-9.304c-0.729-1.065-2.299-0.114-1.563,1.019
					c2.04,3.144,4.044,6.316,6.155,9.414C726.17,471.273,727.915,470.216,727.097,468.961z"/>
				<path style="fill:#2B2A2A;" d="M427.105,502.256c-6.086,4.847-12.061,9.888-17.964,14.969
					c1.694-5.038,3.385-10.077,5.068-15.119c0.173-0.518-0.667-0.977-0.878-0.425c-2.273,5.951-4.539,11.905-6.797,17.863
					c-0.257,0.679,0.669,1.601,1.311,1.081c6.844-5.542,13.662-11.2,20.272-17.018C428.864,502.95,427.864,501.652,427.105,502.256z
					"/>
				<path style="fill:#2B2A2A;" d="M452.188,510.012c-0.377,0.524-0.7,1.08-1.043,1.623c-1.1-2.038-2.198-4.077-3.315-6.107
					c-0.682-1.24-1.479-3.554-3.208-3.656c-1.429-0.084-1.986,1.195-2.454,2.329c-1.162,2.811-2.331,5.674-3.251,8.579
					c-0.618-1.895-1.308-3.768-1.96-5.651c-0.233-0.672-1.137-0.706-1.471-0.139c-1.32,2.237-2.595,4.516-3.951,6.737
					c-0.736-3.199-1.478-6.402-2.437-9.537c-0.147-0.479-0.966-0.405-0.892,0.145c0.527,3.893,1.396,7.748,2.199,11.592
					c0.155,0.744,1.191,1.106,1.588,0.348c1.25-2.388,2.671-4.698,4.057-7.018c0.533,1.654,1.061,3.31,1.668,4.937
					c0.304,0.813,1.333,0.654,1.487-0.034c0.17,0.01,0.341-0.034,0.454-0.23c0.865-1.495,1.604-3.064,2.35-4.622
					c0.447-0.935,0.88-1.878,1.319-2.817l0.44-0.939c0.093-1,0.395-1.202,0.905-0.606c1.139,0.399,2.081,3.458,2.615,4.477
					c0.884,1.687,1.78,3.368,2.669,5.052c0.354,0.669,1.635,1.413,2.206,0.497c0.74-1.189,1.483-2.366,2.132-3.607
					C454.875,510.258,452.945,508.959,452.188,510.012z"/>
				<path style="fill:#2B2A2A;" d="M410.258,517.044c-21.575,23.217-41.085,48.156-59.23,74.121
					c-0.31,0.444,0.417,1.045,0.729,0.601c18.226-25.896,38.36-50.345,59.552-73.856
					C411.832,517.328,410.789,516.471,410.258,517.044z"/>
				<path style="fill:#2B2A2A;" d="M420.82,517.001c-17.577,20.023-33.862,41.469-50.326,62.414
					c-0.349,0.444,0.395,1.06,0.758,0.625c17.06-20.461,34.647-40.853,50.574-62.21C422.274,517.231,421.317,516.435,420.82,517.001
					z"/>
				<path style="fill:#2B2A2A;" d="M438.084,513.75c-20.624,25.956-41.003,52.1-61.516,78.142c-0.276,0.35,0.318,0.841,0.598,0.493
					c20.756-25.841,41.642-51.575,62.29-77.505C440.092,514.082,438.721,512.95,438.084,513.75z"/>
				<path style="fill:#2B2A2A;" d="M449.07,512.344c-13.656,16.603-26.24,34.228-38.901,51.594c-0.299,0.41,0.363,0.966,0.686,0.565
					c13.453-16.745,27.173-33.487,39.63-50.993C451.092,512.659,449.747,511.522,449.07,512.344z"/>
				<path style="fill:#2B2A2A;" d="M523.67,473.163c-16.084,27.058-32.551,53.889-48.635,80.948
					c-0.682,1.148,1.423,2.27,2.144,1.039c15.884-27.129,31.384-54.483,47.267-81.611
					C524.692,473.119,523.933,472.721,523.67,473.163z"/>
				<path style="fill:#2B2A2A;" d="M473.2,510.622c-10.317,13.493-20.733,26.908-30.958,40.472
					c-0.327,0.433,0.395,1.031,0.729,0.601c10.41-13.422,20.626-26.99,30.944-40.484C474.238,510.788,473.524,510.199,473.2,510.622
					z"/>
				<path style="fill:#2B2A2A;" d="M534.367,469.82c-14.677,23.979-29.559,47.879-43.943,72.033
					c-0.591,0.992,1.333,2.275,1.951,1.253c14.547-24.071,28.634-48.463,42.889-72.71
					C535.532,469.939,534.654,469.352,534.367,469.82z"/>
				<path style="fill:#2B2A2A;" d="M559.888,463.238c-9.62,22.811-20.997,45.645-28.648,69.192c-0.428,1.319,1.57,2.438,2.228,1.08
					c10.813-22.308,18.414-46.706,27.28-69.855C560.941,463.152,560.112,462.707,559.888,463.238z"/>
				<path style="fill:#2B2A2A;" d="M589.885,448.384c-1.902,17.098-3.037,34.33-4.371,51.481c-0.128,1.642,2.682,2.4,2.78,0.605
					c0.943-17.274,2.09-34.6,2.47-51.895C590.775,448.071,589.95,447.802,589.885,448.384z"/>
				<path style="fill:#2B2A2A;" d="M613.884,453.722c-0.118-0.535-1.007-0.603-0.925,0.03c1.708,13.227,3.789,26.493,6.187,39.613
					c0.254,1.388,2.611,1.5,2.35-0.076C619.303,480.066,616.758,466.814,613.884,453.722z"/>
				<path style="fill:#2B2A2A;" d="M576.515,476.714c-1.202,9.68-3.004,19.397-3.68,29.126c-0.073,1.045,1.618,1.558,1.794,0.39
					c1.457-9.678,1.802-19.589,2.729-29.333C577.404,476.405,576.583,476.167,576.515,476.714z"/>
				<path style="fill:#2B2A2A;" d="M763.217,486.407c0.078-0.814-0.982-1.362-1.561-0.764c-0.561,0.578-1.129,1.349-1.628,2.17
					c-11.265-12.336-28.489-19.007-45.143-17.114c-13.932,1.584-29.073,9.417-36.715,21.715c-6.488-4.621-15.866-1.813-20.641,4.076
					c-42.57-8.03-89.39,5.741-116.422,40.781c-0.635,0.823,0.653,1.837,1.371,1.13c32.193-31.642,74.952-47.412,119.8-36.949
					c2.749,0.641,2.893-3.369,0.408-3.946c-0.823-0.191-1.661-0.316-2.488-0.491c2.055-1.581,4.385-2.764,6.983-3.226
					c3.518-0.625,6.316,0.393,9.399,1.482c-0.436,0.875-0.842,1.766-1.201,2.679c-0.185,0.471,0.502,0.947,0.849,0.545
					c0.762-0.881,1.532-1.747,2.305-2.605c0.899,0.135,1.337-0.614,1.286-1.406c9.433-10.17,19.935-18.244,34.518-20.062
					c17.131-2.135,33.181,5.189,44.624,17.657c0.88,0.958,2.751,1.451,3.374-0.109c0.189-0.473,0.378-0.947,0.567-1.42
					c0.235-0.59,0.096-1.135-0.227-1.553C762.946,488.098,763.142,487.184,763.217,486.407z"/>
				<path style="fill:#2B2A2A;" d="M473.01,713.904c-0.078-0.443-0.831-0.476-0.747,0.024c4.511,27.039,8.763,54.122,13.3,81.156
					c0.19,1.134,2.125,1.208,1.905-0.061C482.752,767.965,477.751,740.957,473.01,713.904z"/>
				<path style="fill:#2B2A2A;" d="M560.063,795.593c-12.627-32.727-26.664-65.02-40.271-97.351
					c-0.207-0.491-1.007-0.308-0.792,0.241c12.78,32.624,25.228,65.518,38.984,97.743
					C558.532,797.51,560.621,797.039,560.063,795.593z"/>
				<path style="fill:#2B2A2A;" d="M434.598,694.132c-5.663,32.585-11.938,65.332-16.213,98.127
					c-0.178,1.37,2.056,1.999,2.332,0.507c6.03-32.547,10.135-65.665,14.778-98.44C435.569,693.801,434.698,693.556,434.598,694.132
					z"/>
				<path style="fill:#2B2A2A;" d="M380.468,706.807c-20.743,30.282-40.956,60.955-61.232,91.552
					c-0.517,0.781,0.734,1.827,1.269,1.046c20.743-30.249,41.581-60.47,61.859-91.035
					C383.139,707.202,381.267,705.64,380.468,706.807z"/>
				<path style="fill:#2B2A2A;" d="M607.053,634.818c-1.634,4.35-3.583,8.711-4.815,13.193c-0.247,0.899,1.112,1.715,1.536,0.744
					c1.863-4.269,3.083-8.903,4.544-13.324C608.566,634.684,607.352,634.021,607.053,634.818z"/>
				<path style="fill:#2B2A2A;" d="M632.887,630.198c-3.754,10.718-7.552,21.614-10.574,32.56c-0.263,0.953,1.256,1.826,1.621,0.785
					c3.765-10.753,6.851-21.913,9.881-32.896C633.967,630.102,633.096,629.602,632.887,630.198z"/>
				<path style="fill:#2B2A2A;" d="M647.937,624.037c-7.047,16.628-13.868,33.468-20.12,50.411c-0.413,1.12,1.422,2.108,1.908,0.925
					c6.856-16.735,13.218-33.78,19.276-50.82C649.223,623.927,648.216,623.378,647.937,624.037z"/>
				<path style="fill:#2B2A2A;" d="M680.479,619.239c-4.753,18.189-10.264,36.358-14.159,54.748
					c-0.177,0.833,1.346,1.465,1.619,0.562c5.425-17.942,9.318-36.477,13.891-54.656
					C682.032,619.084,680.705,618.374,680.479,619.239z"/>
				<path style="fill:#2B2A2A;" d="M714.025,603.044c-1.885,20.445-4.432,40.997-5.372,61.507c-0.043,0.955,1.523,1.443,1.65,0.359
					c2.4-20.422,3.205-41.151,4.654-61.663C714.996,602.702,714.081,602.436,714.025,603.044z"/>
				<path style="fill:#2B2A2A;" d="M732.462,605.467c-0.029-0.617-1.182-0.818-1.197-0.112c-0.382,18.663,0.032,37.445,0.528,56.104
					c0.025,0.944,1.651,1.439,1.651,0.359C733.44,643.067,733.341,624.199,732.462,605.467z"/>
				<path style="fill:#2B2A2A;" d="M748.548,607.021c-0.095-0.467-0.885-0.515-0.8,0.026c2.863,18.254,6.105,36.478,9.403,54.658
					c0.184,1.013,1.913,1.085,1.708-0.055C755.589,643.419,752.249,625.169,748.548,607.021z"/>
				<path style="fill:#2B2A2A;" d="M773.358,602.322c-0.122-1.148-2.025-1.221-1.904,0.061c0.976,10.408,1.992,20.808,3.173,31.194
					c0.123,1.084,1.902,1.152,1.797-0.058C775.525,623.107,774.462,612.714,773.358,602.322z"/>
				<path style="fill:#2B2A2A;" d="M762.595,706.834c-14.258-27.636-54.68-22.193-64.939,5.498
					c-0.305,0.824,1.056,1.551,1.401,0.679c4.809-12.15,15.919-21.4,29.198-22.457c13.687-1.09,24.618,6.529,32.032,17.352
					C761.108,709.106,763.36,708.318,762.595,706.834z"/>
				<path style="fill:#2B2A2A;" d="M796.592,694.796c-11.619-8.256-29.445-7.578-38.784,3.95c-0.315,0.388,0.286,1.035,0.684,0.716
					c10.753-8.609,24.577-10.701,36.364-2.561C796.451,698.003,798.209,695.945,796.592,694.796z"/>
				<path style="fill:#2B2A2A;" d="M706.144,696.614c-6.039-8.685-19.586-13.43-28.996-7.118c-0.961,0.645,0.064,2.263,1.074,1.849
					c9.773-4.016,20.436-3.321,27.275,5.692C705.818,697.46,706.466,697.078,706.144,696.614z"/>
				<path style="fill:#2B2A2A;" d="M664.722,701.186c-9.379-9.017-25.758-11.83-36.717-3.843c-1.502,1.094,0.321,3.086,1.789,2.386
					c11.63-5.543,23.461-5.704,33.933,2.664C664.618,703.105,665.525,701.958,664.722,701.186z"/>
				<path style="fill:#2B2A2A;" d="M628.544,694.585c-5.992-13.459-21.841-23.19-36.674-21.341c-1.508,0.188-0.962,2.136,0.352,2.18
					c15.268,0.516,27.125,6.583,35.512,19.537C628.017,695.399,628.779,695.112,628.544,694.585z"/>
				<path style="fill:#2B2A2A;" d="M594.037,670.141c-4.2-7.633-12.828-13.502-21.315-15.186c-1.689-0.335-1.689,1.958-0.244,2.367
					c8.62,2.444,14.689,6.622,20.642,13.245C593.474,670.961,594.378,670.761,594.037,670.141z"/>
				<path style="fill:#2B2A2A;" d="M263.965,692.989c-13.98-4.331-28.651,3.299-34.059,16.417
					c-18.93-0.765-36.973,14.979-38.437,34.033c-0.008,0.096,0.056,0.161,0.082,0.245c-9.209,7.103-12.529,20.39-6.992,31.128
					c0.177,0.342,0.559,0.45,0.857,0.381c-0.753,4.228,0.438,8.938,3.864,11.568c0.417,0.32,1.079,0.005,0.839-0.553
					c-1.772-4.14-3.007-8.134-1.083-12.516c2.057-4.687,7.217-6.942,12.112-6.477c1.934,0.184,2.083-2.468,0.286-2.762
					c-5.748-0.939-11.792,1.608-14.662,6.826c-0.502,0.913-0.848,1.923-1.111,2.963c-5.577-11.902,0.252-26.458,12.339-31.51
					c1.429-0.597,0.344-2.778-0.965-2.243c-1.391,0.569-2.679,1.281-3.899,2.072c2.948-17.939,18.6-30.268,36.204-30.262
					c0.104,0.046,0.208,0.044,0.302,0c1.764,0.015,3.54,0.109,5.33,0.379c1.879,0.283,1.965-2.303,0.275-2.659
					c-1.402-0.295-2.808-0.476-4.21-0.582c6.018-11.682,19.956-17.617,32.699-14.216
					C265.297,695.636,265.309,693.406,263.965,692.989z"/>
				<path style="fill:#2B2A2A;" d="M226.537,772.45c-7.716-3.874-17.467,1.639-19.304,9.701c-0.126,0.555,0.898,0.975,1.079,0.375
					c2.278-7.538,10.379-10.999,17.574-8.472C227.057,774.466,227.623,772.995,226.537,772.45z"/>
				<path style="fill:#2B2A2A;" d="M235.235,732.721c-14.097-5.124-26.853,8.667-21.749,22.404c0.251,0.674,1.29,0.42,1.056-0.321
					c-4.092-12.924,7.699-23.649,20.236-20.234C235.948,734.889,236.293,733.105,235.235,732.721z"/>
				<path style="fill:#2B2A2A;" d="M249.77,721.716c-2.633-0.623-5.4-0.309-7.967,0.649c0.07-0.349-0.062-0.747-0.51-0.947
					c-8.883-3.967-19.51-0.893-24.867,7.226c-0.33,0.5,0.451,1.169,0.816,0.673c5.438-7.364,14.948-9.983,23.382-6.424
					c-4.005,1.865-7.362,5.3-8.597,9.384c-0.171,0.563,0.649,1.027,0.945,0.458c3.516-6.764,9.415-9.57,16.85-9.282
					C250.945,723.496,250.646,721.924,249.77,721.716z"/>
				<path style="fill:#2B2A2A;" d="M205.896,748.961c-7.288,0.886-13.815,9.259-10.519,16.547c0.289,0.637,1.242,0.564,1.218-0.198
					c-0.112-3.454-0.26-6.465,1.715-9.512c1.901-2.934,4.732-4.438,8.025-5.338C207.217,750.218,206.698,748.863,205.896,748.961z"
					/>
				<path style="fill:#2B2A2A;" d="M284.819,718.935c-10.429-0.447-20.313,6.123-24.964,15.253
					c-10.667,1.225-19.667,8.932-22.31,20.474c-0.213,0.927,1.384,1.375,1.614,0.351c3.356-14.943,17.808-22.881,32.315-18.046
					c1.032,0.344,1.082-1.221,0.158-1.527c-3.588-1.188-7.169-1.594-10.603-1.356c5.415-8.567,13.931-12.982,24.042-13.585
					C286.167,720.434,285.748,718.975,284.819,718.935z"/>
				<path style="fill:#2B2A2A;" d="M284.519,706.307c-12.128-3.634-25.098,2.757-29.335,14.715
					c-0.177,0.498,0.596,0.919,0.844,0.409c5.48-11.281,16.031-16.355,28.321-13.477
					C285.516,708.227,285.513,706.605,284.519,706.307z"/>
				<path style="fill:#2B2A2A;" d="M325.648,733.922c-8.959,0.239-17.075,4.105-22.721,11.069
					c-8.26,1.023-15.882,4.674-21.886,10.803c-0.063-0.229-0.192-0.448-0.457-0.533c-10.59-3.394-22.148-0.168-28.345,9.238
					c-7.256,1.963-13.536,7.228-15.896,14.817c-0.148,0.476,0.537,0.854,0.793,0.384c3.736-6.844,8.843-11.327,15.128-13.166
					c0.091,0.011,0.168-0.043,0.257-0.08c4.016-1.123,8.506-1.179,13.433-0.064c0.914,0.207,1.192-1.145,0.356-1.44
					c-3.757-1.327-7.739-1.613-11.553-1.003c6.552-7.367,15.618-10.503,25.69-7.489c-1.795,1.919-3.457,4.037-4.917,6.411
					c-0.235,0.382,0.362,0.889,0.613,0.505c9.428-14.458,26.805-21.06,43.29-15.074c1.449,0.526,1.858-1.439,0.458-1.849
					c-5.216-1.528-10.43-2.044-15.439-1.624c5.688-5.894,13.172-9.273,21.448-9.357
					C326.954,735.459,326.597,733.897,325.648,733.922z"/>
				<path style="fill:#2B2A2A;" d="M370.724,635.484c-10.382-3.003-21.512,2.335-26.547,11.657c-0.32,0.592,0.712,1.121,1.063,0.515
					c5.23-9.008,15.353-12.802,25.322-10.611C371.671,637.289,371.673,635.759,370.724,635.484z"/>
				<path style="fill:#2B2A2A;" d="M384.419,641.356c-8.146-2.908-18.091-0.52-24.112,5.646c-0.373,0.382,0.302,1.051,0.711,0.743
					c7.168-5.385,14.321-6.849,23.078-5.08C384.925,642.832,385.185,641.629,384.419,641.356z"/>
				<path style="fill:#2B2A2A;" d="M423.012,589.069c-8.931-0.538-17.282,3.924-22.121,11.352c-0.221,0.339,0.296,0.789,0.554,0.457
					c5.355-6.88,13.118-10.492,21.759-10.613C424.043,590.253,423.716,589.111,423.012,589.069z"/>
				<path style="fill:#2B2A2A;" d="M482.74,556.43c-3.473-4.992-13.802-5.652-18.111-0.996c-0.103-0.06-0.182-0.135-0.309-0.179
					c-11.919-4.158-24.799-4.341-36.464,0.858c-10.379,4.626-21.798,14.567-23.623,26.368c-0.021,0.139,0.051,0.259,0.148,0.36
					c-14.537,5.941-29.718,18.965-32.734,34.935c-0.121,0.642,0.989,1.32,1.382,0.677c4.024-6.579,7.271-13.176,12.631-18.862
					c6.08-6.449,13.354-11.132,21.574-14.381c1.929-0.762,0.482-3.667-1.291-3.002c-0.177,0.066-0.355,0.147-0.532,0.216
					c6.26-8.199,10.795-16.112,20.196-21.492c11.481-6.569,25.214-7.193,37.512-2.717c0.938,0.342,1.655-0.043,2.025-0.633
					c2.351-1.049,4.499-2.129,7.234-2.153c3.456-0.031,5.673,1.635,8.546,3.206C482.413,559.448,483.621,557.698,482.74,556.43z"/>
				<path style="fill:#2B2A2A;" d="M757.812,663.333c-1.95-0.83-4.195-0.694-6.252,0.049l-0.005-0.003
					c-11.176-5.184-26.184-3.435-34.848,5.703c-0.021,0.022-0.009,0.048-0.024,0.071c-12.642-4.665-26.897-2.707-37.528,6.709
					c-0.059-0.352-0.271-0.696-0.723-0.911c-8.556-4.065-19.718-1.093-25.134,6.647c-0.08-0.061-0.151-0.129-0.248-0.175
					c-9.055-4.272-23.875-1.733-29.746,6.862c-0.344,0.504,0.283,1.127,0.801,0.838c4.508-2.518,8.403-5.203,13.604-6.211
					c5.133-0.994,9.718-0.159,14.762,0.851c0.778,0.156,1.241-0.295,1.344-0.855c6.326-6.819,14.948-9.061,23.769-5.869
					c0.142,0.051,0.269,0.061,0.396,0.071c-0.042,0.502,0.642,1.068,1.107,0.717c14.225-10.72,31.895-11.84,46.502-0.938
					c1.48,1.104,3.132-0.864,1.641-1.99c-2.92-2.204-6.058-3.953-9.311-5.277c9.945-6.105,19.767-8.205,30.886-4.764
					c-1.214,0.893-2.242,1.998-2.867,3.269c-0.246,0.501,0.505,0.898,0.865,0.556c1.498-1.426,3.173-2.633,5.193-3.188
					c1.937-0.532,3.649-0.203,5.597-0.089C758.82,665.478,758.725,663.722,757.812,663.333z"/>
				<path style="fill:#2B2A2A;" d="M810.339,668.749c-8.269-4.992-18.429-4.969-25.546,0.519
					c-10.005-5.456-21.905-2.043-28.742,6.288c-10.575-6.963-23.947-3.783-30.525,7.11c-0.284,0.471,0.438,1.1,0.759,0.625
					c6.594-9.778,18.581-11.956,28.391-5.892c-0.786,1.165-1.498,2.393-2.083,3.706c-0.494,1.108,1.374,2.092,1.924,0.933
					c0.685-1.441,1.459-2.756,2.304-3.96c0.387-0.166,0.651-0.508,0.687-0.901c6.229-8.05,16.078-10.291,26.318-7.084
					c-1.897,1.669-3.556,3.737-4.839,6.266c-0.21,0.413,0.511,0.906,0.787,0.505c6.763-9.839,19.225-13.956,29.55-6.409
					C810.633,671.41,811.726,669.586,810.339,668.749z"/>
				<path style="fill:#2B2A2A;" d="M862.919,674.066c-13.285-7.899-30.528-4.697-38.932,8.634c-0.479,0.76,0.658,1.769,1.24,1.022
					c9.251-11.878,23.572-15.321,36.826-7.522C863.504,677.054,864.263,674.865,862.919,674.066z"/>
				<path style="fill:#2B2A2A;" d="M859.273,646.978c-5.438-8.494-23.134-15.149-31.335-6.896c-0.411,0.414,0.151,1.115,0.636,1.08
					c5.267-0.38,9.702-2.029,15.079-0.887c5.674,1.205,9.742,4.373,13.758,8.365C858.568,649.79,860.098,648.266,859.273,646.978z"
					/>
				<path style="fill:#2B2A2A;" d="M848.857,600.631c-12.982-7.287-30.325-2.342-38.76,9.464c-0.496,0.694,0.584,1.604,1.152,0.95
					c9.556-11.01,23.473-13.443,36.741-8.28C849.562,603.377,850.235,601.405,848.857,600.631z"/>
				<path style="fill:#2B2A2A;" d="M805.933,557.871c-11.276-2.195-23.883,4.197-27.433,15.413c-0.206,0.651,0.727,1.156,1.08,0.524
					c5.342-9.564,15.055-15.14,26.083-13.329C807.501,560.78,807.595,558.194,805.933,557.871z"/>
				<path style="fill:#2B2A2A;" d="M836.436,574.079c-12.623-10.409-33.286-7.434-39.569,8.696
					c-0.196,0.503,0.593,1.098,0.944,0.606c9.075-12.742,23.785-17.306,37.091-7.441
					C836.288,576.968,837.789,575.195,836.436,574.079z"/>
				<path style="fill:#2B2A2A;" d="M874.577,460.494c-11.289-8.021-26.022-8.768-36.988-1.57c-0.075-0.016-0.142-0.047-0.222-0.05
					c-13.1-0.392-27.83,8.307-31.713,21.267c-0.153,0.51,0.635,1.195,0.991,0.637c6.765-10.616,15.222-17.478,27.394-19.147
					c-1.706,1.531-3.287,3.28-4.69,5.282c-0.404,0.577,0.465,1.305,0.948,0.782c11.473-12.411,28.504-15.65,42.725-5.313
					C874.439,463.411,876.018,461.517,874.577,460.494z"/>
				<path style="fill:#2B2A2A;" d="M854.344,485.21c-19.6-6.071-39.836,5.041-47.45,23.478c-0.232,0.563,0.673,1.037,0.962,0.466
					c9.096-17.94,26.94-25.125,46.248-21.628C855.777,487.829,855.733,485.64,854.344,485.21z"/>
				<path style="fill:#2B2A2A;" d="M775.515,518.758c-10.78-3.521-23.756,0.339-30.463,9.563c-0.469,0.644,0.492,1.401,1.05,0.866
					c8.252-7.928,18-10.847,29.18-8.182C776.888,521.388,776.845,519.192,775.515,518.758z"/>
				<path style="fill:#2B2A2A;" d="M741.471,493.762c-14.35-8.794-32.065-3.094-39.985,11.267c-0.328,0.595,0.786,1.341,1.148,0.737
					c8.36-13.889,23.865-17.455,38.147-10.306C742.005,496.072,742.512,494.4,741.471,493.762z"/>
				<path style="fill:#2B2A2A;" d="M659.222,515.974c-14.748-16.181-38.324-16.062-53.551-0.577c-0.1,0.102-0.148,0.213-0.195,0.324
					c-8.401,0.803-16.256,5.602-20.235,14.057c-0.457,0.971,1.23,2.152,1.841,1.182c8.018-12.745,21.698-17.261,35.388-9.698
					c0.653,0.361,1.208-0.592,0.6-1.008c-4.258-2.919-9.101-4.418-13.923-4.629c13.944-13.785,35.578-13.137,49.36,0.988
					C658.919,517.036,659.639,516.432,659.222,515.974z"/>
				<path style="fill:#2B2A2A;" d="M866.006,427.294c-24.872-3.957-55.61,11.521-63.006,36.724
					c-15.196-4.649-34.971,4.761-36.267,21.776c-0.042,0.551,0.727,0.868,1.009,0.35c7.828-14.349,18.314-21.908,34.442-19.034
					c-0.035,0.166-0.096,0.322-0.129,0.49c-0.152,0.77,0.986,1.108,1.357,0.471c0.125-0.214,0.25-0.422,0.374-0.635
					c0.362,0.078,0.711,0.131,1.08,0.219c1.764,0.424,2.193-2.082,0.676-2.733c-0.074-0.032-0.154-0.05-0.228-0.081
					c5.724-9.656,11.56-18.43,21.234-24.938c12.025-8.091,25.361-10.128,39.554-9.448
					C868.076,430.55,867.693,427.562,866.006,427.294z"/>
				<path style="fill:#2B2A2A;" d="M858.591,748.389c-70.659-0.585-141.346,0.498-212.005,0.791
					c-0.809,0.004-0.526,1.175,0.19,1.178c70.744,0.293,141.516,1.378,212.26,0.791
					C860.935,751.134,860.265,748.403,858.591,748.389z"/>
				<path style="fill:#2B2A2A;" d="M877.021,782.481c-35.223-2.04-70.46-2.543-105.735-2.781
					c-34.803-0.235-70.544-2.708-105.218,0.425c-7.863,0.711-4.622,10.479,1.779,11.041c34.739,3.05,70.493,0.661,105.355,0.425
					c34.976-0.237,69.915-0.72,104.838-2.781C882.499,788.546,880.747,782.696,877.021,782.481z"/>
				<path style="fill:#2B2A2A;" d="M578.515,306.815c-0.582-10.572-0.773-21.36-2.661-31.798c-0.105-0.581-1.133-0.848-1.197-0.111
					c-0.832,9.594-0.086,19.383,0.302,28.987c0.428,10.589,0.527,21.284,1.545,31.834c0.166,1.716,3.395,2.34,3.395,0.316
					C579.897,326.306,579.049,316.536,578.515,306.815z"/>
				<path style="fill:#2B2A2A;" d="M720.139,286.115c-11.399,9.386-24.866,15.004-39.856,13.812
					c-15.293-1.216-27.004-11.165-41.128-15.891c-19.225-6.433-42.891,1.327-52.728,19.504c-0.097-0.668-0.157-1.354-0.263-2.017
					c-0.118-0.741-1.418-1.053-1.501-0.14c-1.033,11.382-0.666,23.435,0.312,34.822c0.146,1.706,3.329,2.312,3.359,0.313
					c0.148-9.772-0.269-19.953-1.488-29.767c0.023-0.026,0.06-0.015,0.081-0.046c7.306-10.554,17.171-18.316,29.99-20.882
					c16.165-3.236,28.867,5.148,42.766,11.868c20.58,9.949,46.436,8.119,62.679-9.25
					C723.489,287.235,721.389,285.086,720.139,286.115z"/>
				<path style="fill:#2B2A2A;" d="M723.005,284.813c-3.989-1.083-8.086-1.891-12.145-2.681c-2.844-0.554-5.775-1.291-8.689-1.404
					c1.588-1.808,3.021-3.785,4.449-5.678c1.932-2.561,4.077-5.113,5.512-7.992c0.927-1.86-2.002-3.621-3.352-2.152
					c-0.168,0.183-0.314,0.394-0.476,0.584c-0.068,0.017-0.135,0.011-0.203,0.042c-14.102,6.501-29.931,7.31-43.597-0.946
					c-11.125-6.721-19.109-17.704-31.965-21.547c-20.514-6.131-45.236,6.786-48.205,28.496c-2.708-2.586-7.705-2.536-10.151,0.461
					c-2.251,2.757-1.693,9.361,2.803,9.486c0.445,0.013,0.642-0.463,0.499-0.825c-0.728-1.847-1.657-4.105-0.277-5.921
					c0.598-0.787,1.572-1.168,2.54-1.186c1.223-0.023,1.845,0.539,2.753,1.247c0.447,0.349,1.036,0.444,1.585,0.368
					c-0.006,0.255-0.052,0.495-0.052,0.753c0,0.689,1.226,1.423,1.479,0.514c3.583-12.882,10.52-24.573,23.726-29.406
					c16.702-6.113,30.246,1.778,42.531,12.418c14.939,12.938,34.512,19.681,52.89,11.292c-0.583,0.966-1.156,1.93-1.73,2.862
					c-1.659,2.698-3.495,5.439-4.626,8.406c-0.371,0.974,0.907,1.68,1.62,1.041c0.249-0.223,0.473-0.477,0.713-0.711
					c6.343,3.331,15.089,4.676,22.01,5.946C725.118,288.731,725.136,285.391,723.005,284.813z"/>
			</g>
		</g>
	</g>
</g>
</svg>
